<svg width="16" height="16" viewBox="0 0 16 16" fill="none" xmlns="http://www.w3.org/2000/svg">
<path d="M6 10C6 8.1144 6 7.1716 6.58579 6.58579C7.1716 6 8.1144 6 10 6H10.6667C12.5523 6 13.4951 6 14.0809 6.58579C14.6667 7.1716 14.6667 8.1144 14.6667 10V10.6667C14.6667 12.5523 14.6667 13.4951 14.0809 14.0809C13.4951 14.6667 12.5523 14.6667 10.6667 14.6667H10C8.1144 14.6667 7.1716 14.6667 6.58579 14.0809C6 13.4951 6 12.5523 6 10.6667V10Z" stroke="#9B9B9B" stroke-linecap="round" stroke-linejoin="round"/>
<path d="M11.3332 5.99998C11.3316 4.02859 11.3018 3.00745 10.7279 2.30827C10.6171 2.17324 10.4933 2.04943 10.3583 1.93862C9.62072 1.33331 8.52492 1.33331 6.33325 1.33331C4.1416 1.33331 3.04577 1.33331 2.30821 1.93862C2.17318 2.04943 2.04937 2.17324 1.93856 2.30827C1.33325 3.04583 1.33325 4.14166 1.33325 6.33331C1.33325 8.52498 1.33325 9.62078 1.93856 10.3584C2.04937 10.4934 2.17318 10.6172 2.30821 10.728C3.00739 11.3018 4.02853 11.3316 5.99992 11.3332" stroke="#9B9B9B" stroke-linecap="round" stroke-linejoin="round"/>
</svg>
