<svg width="13" height="13" viewBox="0 0 13 13" fill="none" xmlns="http://www.w3.org/2000/svg">
<path d="M10.5625 2.97913L10.2268 8.40939C10.141 9.79676 10.0982 10.4905 9.75043 10.9892C9.57845 11.2358 9.35713 11.4439 9.10038 11.6003C8.58114 11.9166 7.88612 11.9166 6.49605 11.9166C5.10419 11.9166 4.40825 11.9166 3.88865 11.5997C3.63177 11.443 3.41033 11.2346 3.23845 10.9876C2.89081 10.488 2.84887 9.79335 2.765 8.40403L2.4375 2.97913" stroke="currentColor" stroke-linecap="round"/>
<path d="M1.625 2.97921H11.375M8.69684 2.97921L8.3271 2.21639C8.08145 1.70968 7.9586 1.45632 7.74675 1.29831C7.69979 1.26326 7.65001 1.23208 7.59796 1.20509C7.36336 1.08337 7.0818 1.08337 6.51869 1.08337C5.94143 1.08337 5.65283 1.08337 5.41433 1.21019C5.36147 1.2383 5.31103 1.27074 5.26353 1.30717C5.04922 1.47159 4.92951 1.73421 4.69008 2.25947L4.362 2.97921" stroke="currentColor" stroke-linecap="round"/>
</svg>
